<svg xmlns="http://www.w3.org/2000/svg" aria-hidden="true" style="position:absolute;width:0;height:0;overflow:hidden">
  <defs>
    <symbol id="icon-twitter" viewBox="0 0 32 32">
      <path stroke-linecap="round" stroke-linejoin="round" stroke-width="2.667" d="M30.667 4.013a14.5 14.5 0 0 1-4.187 2.04 5.975 5.975 0 0 0-6.637-1.661A5.979 5.979 0 0 0 16 10.053v1.333a14.21 14.21 0 0 1-12-6.04s-5.333 12 6.667 17.333a15.52 15.52 0 0 1-9.333 2.667c12 6.667 26.667 0 26.667-15.333a6 6 0 0 0-.107-1.107 10.3 10.3 0 0 0 2.773-4.893"/>
    </symbol>
    <symbol id="icon-instagram" viewBox="0 0 32 32">
      <path stroke-linecap="round" stroke-linejoin="round" stroke-width="2.667" d="M22.667 2.667H9.334a6.667 6.667 0 0 0-6.667 6.667v13.333a6.667 6.667 0 0 0 6.667 6.667h13.333a6.667 6.667 0 0 0 6.667-6.667V9.334a6.667 6.667 0 0 0-6.667-6.667"/>
      <path stroke-linecap="round" stroke-linejoin="round" stroke-width="2.667" d="M21.333 15.16a5.338 5.338 0 0 1-6.123 6.049 5.334 5.334 0 1 1 6.124-6.048zM23.333 8.667h.013"/>
    </symbol>
    <symbol id="icon-vector" viewBox="0 0 32 32">
      <path d="m8.17 19.52-2.293 9.778c-.071.296-.05.606.061.89s.306.529.56.701a1.55 1.55 0 0 0 1.731.01l8.38-5.501 8.38 5.501a1.56 1.56 0 0 0 1.76-.038c.254-.182.446-.437.549-.73s.112-.61.026-.908l-2.815-9.699 6.981-6.186a1.492 1.492 0 0 0 .427-1.613c-.097-.281-.275-.527-.512-.709s-.524-.291-.824-.315l-8.774-.688-3.797-8.276c-.121-.266-.318-.493-.567-.652a1.552 1.552 0 0 0-2.237.652l-3.797 8.276-8.774.687c-.295.023-.577.129-.812.306s-.414.416-.514.69a1.49 1.49 0 0 0 .373 1.6l6.485 6.224zm4.391-6.556c.275-.021.539-.115.764-.271s.404-.369.517-.617l2.769-6.033 2.769 6.033c.113.248.291.461.517.617s.489.25.764.271l6.113.477-5.034 4.462a1.5 1.5 0 0 0-.451 1.543l1.928 6.645-5.75-3.775a1.54 1.54 0 0 0-1.706 0l-6.008 3.945 1.616-6.889a1.5 1.5 0 0 0-.425-1.425l-4.676-4.489 6.295-.494z"/>
    </symbol>
    <symbol id="icon-Vector" viewBox="0 0 32 32">
      <path d="M30.699 11.725c-.097-.281-.275-.527-.512-.709s-.524-.292-.824-.315l-8.774-.687-3.797-8.276c-.121-.267-.318-.493-.566-.652a1.55 1.55 0 0 0-2.238.65l-3.797 8.277-8.774.687c-.295.023-.577.129-.812.306s-.414.416-.514.69a1.49 1.49 0 0 0 .373 1.6l6.484 6.224-2.293 9.778c-.07.296-.047.606.064.889s.307.527.56.7a1.55 1.55 0 0 0 1.73.012l8.38-5.501 8.38 5.501a1.56 1.56 0 0 0 1.76-.038 1.505 1.505 0 0 0 .575-1.638l-2.815-9.699 6.981-6.186c.457-.406.625-1.04.428-1.614z"/>
    </symbol>
    <symbol id="icon-sandclock" viewBox="0 0 32 32">
      <path d="M26.487 2.689h1.614a.53.53 0 0 0 .538-.538V1.075a.53.53 0 0 0-.538-.538H3.361a.53.53 0 0 0-.538.538v1.076a.53.53 0 0 0 .538.538h1.613c0 6.219 2.975 10.723 6.269 12.908-3.294 2.185-6.269 6.689-6.269 12.908H3.361a.53.53 0 0 0-.538.538v1.076c0 .302.235.538.538.538h24.74a.53.53 0 0 0 .538-.538v-1.076a.53.53 0 0 0-.538-.538h-1.614c0-6.219-2.975-10.723-6.269-12.908 3.294-2.185 6.269-6.689 6.269-12.908m-2.151 0c0 2.454-.555 4.622-1.429 6.454H8.554c-.874-1.832-1.429-4-1.429-6.454zm-.958 20.437H8.084c1.244-3.244 3.479-5.546 5.714-6.454h3.866c2.235.908 4.471 3.21 5.714 6.454"/>
    </symbol>
    <symbol id="icon-hard" viewBox="0 0 32 32">
      <path d="M16 29.286c.286 0 .571-.107.786-.322L27.911 18.25C28.072 18.089 32 14.5 32 10.214c0-5.232-3.196-8.357-8.536-8.357-3.125 0-6.053 2.464-7.464 3.857-1.411-1.393-4.339-3.857-7.464-3.857C3.197 1.857 0 4.982 0 10.214c0 4.286 3.929 7.875 4.071 8l11.143 10.75c.214.214.5.322.786.322"/>
    </symbol>
    <symbol id="icon-wabe" viewBox="0 0 32 32">
      <path d="m16.857 13.587 2.079.968 3.095-.921v-2.159c0-3.667-3.095-6.603-6.794-6.603-3.683 0-6.794 2.921-6.794 6.556v9.841c0 .905-.73 1.619-1.619 1.619s-1.619-.714-1.619-1.619V17.11H-.001v4.222a6.81 6.81 0 0 0 6.81 6.81c3.73 0 6.809-3 6.809-6.714v-9.714c0-.889.73-1.619 1.619-1.619s1.619.73 1.619 1.619v1.873zm8.413 3.524v4.365c0 .889-.73 1.603-1.619 1.603s-1.619-.714-1.619-1.603V17.19l-3.095.921-2.079-.968v4.254c0 3.73 3.064 6.746 6.81 6.746a6.81 6.81 0 0 0 6.81-6.81v-4.222h-5.206z"/>
    </symbol>
    <symbol id="icon-cursor" viewBox="0 0 32 32">
      <path d="M24.689 18.067 7.479.857a1 1 0 0 0-.756-.319c-.134 0-.286.034-.403.084a1.08 1.08 0 0 0-.672.992v25.277c0 .437.269.824.672.992.118.05.269.084.403.084.286 0 .555-.118.756-.319l5.244-5.244 3.21 7.597a1.08 1.08 0 0 0 1.412.571l2.975-1.261a1.08 1.08 0 0 0 .571-1.412l-3.378-8h6.42c.437 0 .824-.269.992-.672a1.04 1.04 0 0 0-.235-1.16z"/>
    </symbol>
    <symbol id="icon-tick" viewBox="0 0 32 32">
      <path d="M29.767 5.156a1.487 1.487 0 0 0-2.133 0L9.559 23.581l-6.948-7.082c-.589-.601-1.544-.601-2.134 0s-.589 1.574 0 2.175l8.014 8.17c.589.6 1.545.6 2.134 0L29.767 7.331a1.56 1.56 0 0 0 0-2.175"/>
    </symbol>
    <symbol id="icon-cloud" viewBox="0 0 134 32">
      <path d="M130.254 14.895c0-6.235-5.272-11.289-11.776-11.289H15.382c-6.504 0-11.776 5.054-11.776 11.289s5.272 11.289 11.776 11.289h103.096c6.504 0 11.776-5.054 11.776-11.289"/>
    </symbol>
    <symbol id="icon-star-fill" viewBox="0 0 34 32">
    <path d="M32.404 11.487c-0.102-0.296-0.29-0.556-0.541-0.749s-0.553-0.308-0.869-0.333l-9.261-0.725-4.008-8.736c-0.128-0.281-0.335-0.52-0.598-0.688s-0.569-0.257-0.882-0.257c-0.313-0-0.619 0.089-0.882 0.256s-0.471 0.406-0.599 0.687l-4.008 8.737-9.261 0.725c-0.311 0.024-0.609 0.136-0.857 0.323s-0.437 0.439-0.543 0.728c-0.106 0.289-0.125 0.602-0.055 0.902s0.226 0.573 0.449 0.787l6.844 6.57-2.421 10.321c-0.074 0.312-0.050 0.639 0.068 0.938s0.324 0.556 0.592 0.739c0.268 0.182 0.585 0.281 0.911 0.283s0.645-0.092 0.915-0.27l8.845-5.807 8.845 5.807c0.277 0.181 0.603 0.274 0.935 0.267s0.654-0.114 0.922-0.307c0.268-0.193 0.47-0.462 0.579-0.771s0.118-0.644 0.028-0.958l-2.971-10.238 7.369-6.53c0.482-0.429 0.66-1.097 0.452-1.704z"></path>
    </symbol>
    <symbol id="icon-star" viewBox="0 0 34 32">
    <path d="M7.336 19.715l-2.421 10.321c-0.075 0.313-0.052 0.64 0.065 0.94s0.323 0.558 0.591 0.74c0.268 0.183 0.586 0.281 0.912 0.283s0.645-0.093 0.916-0.273l8.845-5.807 8.845 5.807c0.277 0.181 0.603 0.274 0.935 0.267s0.654-0.114 0.922-0.307c0.268-0.193 0.47-0.462 0.579-0.771s0.118-0.644 0.028-0.958l-2.971-10.238 7.369-6.53c0.236-0.209 0.404-0.482 0.485-0.785s0.069-0.622-0.033-0.918c-0.102-0.296-0.29-0.556-0.54-0.748s-0.553-0.308-0.869-0.332l-9.261-0.726-4.008-8.736c-0.128-0.281-0.336-0.52-0.598-0.688s-0.569-0.257-0.882-0.257c-0.313 0-0.619 0.089-0.882 0.257s-0.47 0.406-0.598 0.688l-4.008 8.736-9.261 0.725c-0.311 0.024-0.609 0.136-0.857 0.323s-0.437 0.439-0.543 0.728c-0.106 0.289-0.125 0.602-0.055 0.902s0.226 0.573 0.449 0.787l6.846 6.57zM11.971 12.795c0.29-0.023 0.568-0.121 0.806-0.286s0.426-0.39 0.545-0.651l2.923-6.368 2.923 6.368c0.119 0.261 0.308 0.486 0.545 0.651s0.516 0.264 0.806 0.286l6.452 0.504-5.314 4.709c-0.461 0.41-0.645 1.040-0.476 1.628l2.036 7.014-6.069-3.985c-0.266-0.176-0.58-0.27-0.901-0.27s-0.634 0.094-0.901 0.27l-6.342 4.164 1.706-7.272c0.063-0.267 0.054-0.546-0.024-0.81s-0.225-0.502-0.424-0.694l-4.935-4.738 6.644-0.521z"></path>
    </symbol>
    <symbol id="icon-twitter" viewBox="0 0 32 32">
    <path fill="none" stroke-linejoin="round" stroke-linecap="round" stroke-miterlimit="4" stroke-width="2.6667" d="M30.667 4.013c-1.277 0.901-2.691 1.589-4.187 2.040-0.803-0.923-1.87-1.578-3.057-1.875s-2.437-0.222-3.58 0.214c-1.143 0.436-2.125 1.213-2.812 2.226s-1.047 2.211-1.031 3.435v1.333c-2.343 0.061-4.665-0.459-6.759-1.513s-3.894-2.609-5.241-4.527c0 0-5.333 12 6.667 17.333-2.746 1.864-6.017 2.799-9.333 2.667 12 6.667 26.667 0 26.667-15.333-0.001-0.371-0.037-0.742-0.107-1.107 1.361-1.342 2.321-3.036 2.773-4.893v0z"></path>
    </symbol>
<symbol fill="none" id="icon-facebook" viewBox="0 0 32 32">
<path stroke-linejoin="round" stroke-linecap="round" stroke-miterlimit="4" stroke-width="2.6667" d="M24 2.667h-4c-1.768 0-3.464 0.702-4.714 1.953s-1.953 2.946-1.953 4.714v4h-4v5.333h4v10.667h5.333v-10.667h4l1.333-5.333h-5.333v-4c0-0.354 0.141-0.693 0.391-0.943s0.589-0.391 0.943-0.391h4v-5.333z"></path>
</symbol>
<symbol fill="none" id="icon-instagram" viewBox="0 0 32 32">
<path stroke-linejoin="round" stroke-linecap="round" stroke-miterlimit="4" stroke-width="2.6667" d="M22.667 2.667h-13.333c-3.682 0-6.667 2.985-6.667 6.667v13.333c0 3.682 2.985 6.667 6.667 6.667h13.333c3.682 0 6.667-2.985 6.667-6.667v-13.333c0-3.682-2.985-6.667-6.667-6.667z"></path>
<path stroke-linejoin="round" stroke-linecap="round" stroke-miterlimit="4" stroke-width="2.6667" d="M21.333 15.16c0.165 1.11-0.025 2.243-0.542 3.239s-1.334 1.803-2.336 2.308c-1.002 0.504-2.138 0.68-3.245 0.502s-2.131-0.701-2.924-1.494-1.316-1.816-1.494-2.924c-0.178-1.107-0.003-2.243 0.502-3.245s1.312-1.82 2.308-2.336 2.129-0.706 3.239-0.542c1.132 0.168 2.18 0.695 2.989 1.504s1.337 1.857 1.504 2.989z"></path>
<path stroke-linejoin="round" stroke-linecap="round" stroke-miterlimit="4" stroke-width="2.6667" d="M23.333 8.667h0.013"></path>
</symbol>
<symbol id="icon-logo" viewBox="0 0 36 32">
<path fill="#02bc6b" style="fill: var(--color1, #02bc6b)" d="M2.785 30.324c-1.532 0-2.785-1.241-2.785-2.757v-9.639h7.010v-0.011h4.213c1.086-0.028 2.005-0.965 2.005-2.068 0-1.13-0.947-2.068-2.089-2.068l-11.14 0.002v-2.759c0-1.516 1.253-2.757 2.785-2.757h8.355c2.117 0 3.927 0.744 5.403 2.233 1.504 1.461 2.256 3.253 2.256 5.349 0 2.068-0.724 3.86-2.2 5.321s-3.258 2.233-5.347 2.261h-5.681v4.136c0 1.516-1.253 2.757-2.785 2.757z"></path>
<path fill="#02897a" style="fill: var(--color2, #02897a)" d="M22.309 5.067c3.077 2.959 4.627 6.644 4.627 10.832 0 4.118-1.486 7.8-4.515 10.768l-4.301-4.006c1.884-1.846 2.809-4.068 2.809-6.761 0-2.714-0.953-4.933-2.882-6.788l4.262-4.044z"></path>
<path fill="#035b81" style="fill: var(--color3, #035b81)" d="M28.894 0c4.432 4.38 6.662 9.812 6.662 16.046 0 6.136-2.14 11.564-6.499 15.954l-4.151-4.015c3.247-3.27 4.838-7.236 4.838-11.939 0-4.75-1.645-8.713-4.962-11.992l4.113-4.053z"></path>
<path fill="#028e37" style="fill: var(--color4, #028e37)" d="M0 23.454h5.57v4.113c0 1.516-1.253 2.757-2.785 2.757s-2.785-1.241-2.785-2.757v-4.113z"></path>
</symbol>
<symbol id="icon-mobile" viewBox="0 0 21 32">
<path d="M16.935 2.286h-13.299c-1.377 0-2.494 1.152-2.494 2.571v22.286c0 1.42 1.117 2.571 2.494 2.571h13.299c1.377 0 2.494-1.152 2.494-2.571v-22.286c0-1.42-1.117-2.571-2.494-2.571zM12.779 26.238c0 0.52-0.374 0.905-0.831 0.905h-3.371c-0.41 0-0.784-0.386-0.784-0.857s0.374-0.857 0.831-0.857h3.325c0.457 0 0.831 0.386 0.831 0.809zM16.104 22.857h-11.636v-17.143h11.636v17.143z"></path>
</symbol>
  </defs>
</svg>
